<?xml version="1.0" encoding="UTF-8"?>
<svg width="139px" height="30px" viewBox="0 0 139 30" version="1.1" xmlns="http://www.w3.org/2000/svg" xmlns:xlink="http://www.w3.org/1999/xlink">
    <!-- Generator: Sketch 52.6 (67491) - http://www.bohemiancoding.com/sketch -->
    <title>Group 2@2x</title>
    <desc>Created with Sketch.</desc>
    <g id="Branding-&amp;-Transit-Details" stroke="none" stroke-width="1" fill="none" fill-rule="evenodd">
        <g id="Road-Classes" transform="translate(-702.000000, -226.000000)">
            <g id="Group-2" transform="translate(702.000000, 224.000000)">
                <g id="Group-3-Copy-5" transform="translate(0.000000, 2.000000)" fill-rule="nonzero">
                    <rect id="Rectangle" fill="#009EE2" x="0" y="0" width="30" height="30" rx="15"></rect>
                    <path d="M7.88176664,16.3364926 C7.66547155,12.1960204 8.07934665,9.32310058 9.12339195,7.71773308 C10.1674372,6.11236558 12.1488899,5.27891833 15.0677499,5.2173913 C18.1440769,5.26026339 20.245961,6.09371065 21.3734023,7.71773308 C22.5008437,9.34175551 22.9720221,12.2146754 22.7869377,16.3364926 C22.0482911,17.161386 21.3571874,17.7601589 20.7136266,18.1328114 C20.0700657,18.5054638 19.2221649,18.8876371 18.169924,19.2793313 L12.2529584,19.2793313 C11.3009984,18.9758539 10.500483,18.5936805 9.85141227,18.1328114 C9.2023415,17.6719422 8.54579295,17.0731693 7.88176664,16.3364926 Z M10.8576353,15.4314301 L11.9791981,17.1856337 L13.8132432,17.1856337 L12.5049455,15.4314301 L10.8576353,15.4314301 Z M19.6801563,15.4314301 L18.0328462,15.4314301 L16.7245485,17.1856337 L18.5585936,17.1856337 L19.6801563,15.4314301 Z M9.68798147,9.70306558 C9.64090877,12.8189096 11.4914075,14.3768316 15.2394776,14.3768316 C18.9875477,14.3768316 20.8334556,12.8189096 20.7772012,9.70306558 C20.7772012,7.99202262 18.9290599,7.13650114 15.2327773,7.13650114 C11.5364947,7.13650114 9.68822944,7.99202262 9.68798147,9.70306558 Z M7.93790867,17.6253255 C9.91120413,19.066541 11.2945597,19.7871487 12.0879755,19.7871487 C12.8989122,19.7871487 16.5449901,19.9915956 18.2572393,19.7871487 C19.3573417,19.6557936 20.8157144,18.9351859 22.6323573,17.6253255 C22.3665285,19.1257554 22.0229683,20.2726337 21.6016768,21.0659607 C21.1803852,21.8592876 20.6155984,22.422902 19.9073164,22.7568037 L10.4783961,22.7568037 C9.62639576,22.2901702 9.0368722,21.7265558 8.70982537,21.0659607 C8.38277854,20.4053655 8.12547298,19.2584871 7.93790867,17.6253255 Z M10.7148374,23.0216399 L19.765914,23.0216399 L19.765914,23.9673913 L10.7148374,23.9673913 L10.7148374,23.0216399 Z" id="Combined-Shape" fill="#FFFFFF"></path>
                </g>
                <text id="Trainpal-Copy-3" font-family="CircularStd-BlackItalic, Circular Std" font-size="26" font-style="italic" font-weight="700">
                    <tspan x="35" y="26" fill="#1C1C1C">Train</tspan>
                    <tspan x="99.766" y="26" fill="#009EE2">pal</tspan>
                </text>
            </g>
        </g>
    </g>
</svg>